<svg width="400" height="400" viewBox="0 0 400 400" fill="none" xmlns="http://www.w3.org/2000/svg">
  <rect width="400" height="400" fill="#111111" />
  
  <!-- Abstract code lines -->
  <g opacity="0.8">
    <line x1="50" y1="80" x2="350" y2="80" stroke="#0070F3" stroke-width="2" />
    <line x1="70" y1="100" x2="280" y2="100" stroke="#0070F3" stroke-width="2" />
    <line x1="90" y1="120" x2="320" y2="120" stroke="#0070F3" stroke-width="2" />
    <line x1="60" y1="140" x2="240" y2="140" stroke="#0070F3" stroke-width="2" />
    <line x1="80" y1="160" x2="340" y2="160" stroke="#0070F3" stroke-width="2" />
    <line x1="100" y1="180" x2="260" y2="180" stroke="#0070F3" stroke-width="2" />
    <line x1="50" y1="200" x2="300" y2="200" stroke="#0070F3" stroke-width="2" />
    <line x1="70" y1="220" x2="330" y2="220" stroke="#0070F3" stroke-width="2" />
    <line x1="90" y1="240" x2="280" y2="240" stroke="#0070F3" stroke-width="2" />
    <line x1="60" y1="260" x2="310" y2="260" stroke="#0070F3" stroke-width="2" />
    <line x1="80" y1="280" x2="260" y2="280" stroke="#0070F3" stroke-width="2" />
    <line x1="100" y1="300" x2="320" y2="300" stroke="#0070F3" stroke-width="2" />
    <line x1="50" y1="320" x2="280" y2="320" stroke="#0070F3" stroke-width="2" />
  </g>
  
  <!-- Syntax elements -->
  <g opacity="0.9">
    <rect x="50" y="80" width="10" height="10" fill="#FF4D4D" />
    <rect x="90" y="120" width="10" height="10" fill="#FF4D4D" />
    <rect x="80" y="160" width="10" height="10" fill="#FF4D4D" />
    <rect x="50" y="200" width="10" height="10" fill="#FF4D4D" />
    <rect x="90" y="240" width="10" height="10" fill="#FF4D4D" />
    <rect x="80" y="280" width="10" height="10" fill="#FF4D4D" />
    <rect x="50" y="320" width="10" height="10" fill="#FF4D4D" />
    
    <circle cx="320" cy="120" r="5" fill="#00FF00" />
    <circle cx="240" cy="140" r="5" fill="#00FF00" />
    <circle cx="260" cy="180" r="5" fill="#00FF00" />
    <circle cx="330" cy="220" r="5" fill="#00FF00" />
    <circle cx="310" cy="260" r="5" fill="#00FF00" />
    <circle cx="320" cy="300" r="5" fill="#00FF00" />
  </g>
  
  <!-- Brackets and parentheses -->
  <path d="M40 70C40 65 40 60 45 60H60" stroke="#FFFFFF" stroke-width="2" />
  <path d="M40 330C40 335 40 340 45 340H60" stroke="#FFFFFF" stroke-width="2" />
  <path d="M350 70C350 65 350 60 345 60H330" stroke="#FFFFFF" stroke-width="2" />
  <path d="M350 330C350 335 350 340 345 340H330" stroke="#FFFFFF" stroke-width="2" />
</svg>
