<svg width="400" height="400" viewBox="0 0 400 400" fill="none" xmlns="http://www.w3.org/2000/svg">
  <rect width="400" height="400" fill="#F8F8F8" />
  
  <!-- Central server -->
  <rect x="175" y="175" width="50" height="50" rx="5" fill="#0070F3" />
  <rect x="185" y="185" width="30" height="5" rx="1" fill="white" />
  <rect x="185" y="195" width="30" height="5" rx="1" fill="white" />
  <rect x="185" y="205" width="30" height="5" rx="1" fill="white" />
  
  <!-- Network nodes -->
  <circle cx="100" cy="100" r="25" fill="#FF4D4D" />
  <circle cx="300" cy="100" r="25" fill="#4CAF50" />
  <circle cx="100" cy="300" r="25" fill="#4CAF50" />
  <circle cx="300" cy="300" r="25" fill="#FF4D4D" />
  
  <!-- Smaller nodes -->
  <circle cx="150" cy="150" r="15" fill="#FFD700" />
  <circle cx="250" cy="150" r="15" fill="#FFD700" />
  <circle cx="150" cy="250" r="15" fill="#FFD700" />
  <circle cx="250" cy="250" r="15" fill="#FFD700" />
  
  <!-- Connection lines -->
  <line x1="200" y1="175" x2="200" y2="150" stroke="#0070F3" stroke-width="2" />
  <line x1="175" y1="200" x2="150" y2="200" stroke="#0070F3" stroke-width="2" />
  <line x1="225" y1="200" x2="250" y2="200" stroke="#0070F3" stroke-width="2" />
  <line x1="200" y1="225" x2="200" y2="250" stroke="#0070F3" stroke-width="2" />
  
  <line x1="150" y1="150" x2="115" y2="115" stroke="#0070F3" stroke-width="2" />
  <line x1="250" y1="150" x2="285" y2="115" stroke="#0070F3" stroke-width="2" />
  <line x1="150" y1="250" x2="115" y2="285" stroke="#0070F3" stroke-width="2" />
  <line x1="250" y1="250" x2="285" y2="285" stroke="#0070F3" stroke-width="2" />
  
  <!-- Data packets -->
  <rect x="190" y="160" width="10" height="10" rx="5" fill="yellow" />
  <rect x="160" y="190" width="10" height="10" rx="5" fill="yellow" />
  <rect x="230" y="190" width="10" height="10" rx="5" fill="yellow" />
  <rect x="190" y="230" width="10" height="10" rx="5" fill="yellow" />
  
  <!-- Status indicators -->
  <circle cx="100" cy="100" r="5" fill="white" />
  <circle cx="300" cy="100" r="5" fill="white" />
  <circle cx="100" cy="300" r="5" fill="white" />
  <circle cx="300" cy="300" r="5" fill="white" />
  
  <!-- IP Address Labels -->
  <rect x="85" y="120" width="30" height="10" rx="2" fill="white" />
  <rect x="285" y="120" width="30" height="10" rx="2" fill="white" />
  <rect x="85" y="320" width="30" height="10" rx="2" fill="white" />
  <rect x="285" y="320" width="30" height="10" rx="2" fill="white" />
</svg>
