<svg width="400" height="400" viewBox="0 0 400 400" fill="none" xmlns="http://www.w3.org/2000/svg">
  <rect width="400" height="400" fill="#F5F5F5" />
  
  <!-- Desk -->
  <rect x="50" y="250" width="300" height="15" rx="2" fill="#8B4513" />
  <rect x="70" y="265" width="10" height="100" fill="#8B4513" />
  <rect x="320" y="265" width="10" height="100" fill="#8B4513" />
  
  <!-- Laptop -->
  <rect x="130" y="180" width="140" height="90" rx="5" fill="#333333" />
  <rect x="135" y="185" width="130" height="80" rx="2" fill="#0070F3" />
  <rect x="120" y="270" width="160" height="10" rx="2" fill="#333333" />
  
  <!-- Screen content (code) -->
  <line x1="145" y1="195" x2="255" y2="195" stroke="white" stroke-width="1" />
  <line x1="145" y1="205" x2="235" y2="205" stroke="white" stroke-width="1" />
  <line x1="145" y1="215" x2="225" y2="215" stroke="white" stroke-width="1" />
  <line x1="165" y1="225" x2="255" y2="225" stroke="white" stroke-width="1" />
  <line x1="165" y1="235" x2="245" y2="235" stroke="white" stroke-width="1" />
  <line x1="145" y1="245" x2="235" y2="245" stroke="white" stroke-width="1" />
  <line x1="145" y1="255" x2="255" y2="255" stroke="white" stroke-width="1" />
  
  <!-- Coffee mug -->
  <rect x="290" y="210" width="30" height="40" rx="5" fill="#D3D3D3" />
  <path d="M320 225C325 225 330 230 330 235C330 240 325 245 320 245" stroke="#D3D3D3" stroke-width="5" />
  <line x1="295" y1="220" x2="315" y2="220" stroke="#8B4513" stroke-width="3" />
  
  <!-- Plants -->
  <rect x="70" y="200" width="30" height="50" rx="2" fill="#4CAF50" />
  <path d="M75 200C75 180 85 170 95 190" stroke="#4CAF50" stroke-width="3" />
  <path d="M85 200C85 175 95 165 105 185" stroke="#4CAF50" stroke-width="3" />
  <path d="M95 200C95 180 105 170 105 190" stroke="#4CAF50" stroke-width="3" />
  
  <!-- Decorative elements -->
  <circle cx="200" cy="80" r="30" fill="#0070F3" opacity="0.2" />
  <rect x="260" y="100" width="40" height="40" rx="5" fill="#FF4D4D" opacity="0.2" />
  <path d="M100 100L120 80L140 100L120 120L100 100Z" fill="#4CAF50" opacity="0.2" />
</svg>
